HIERARCHY
ROOT Hips
{
 OFFSET 0.000000 0.000000 0.000000
 CHANNELS 6 Xposition Yposition Zposition Yrotation Xrotation Zrotation
 JOINT Chest
 {
  OFFSET 0.000000 9.585900 0.002600
  CHANNELS 3 Yrotation Xrotation Zrotation
  JOINT Chest2
  {
   OFFSET 0.000000 9.601200 -0.005300
   CHANNELS 3 Yrotation Xrotation Zrotation
   JOINT Chest3
   {
    OFFSET 0.000000 9.561800 0.000000
    CHANNELS 3 Yrotation Xrotation Zrotation
    JOINT Chest4
    {
     OFFSET 0.000000 9.552100 0.000000
     CHANNELS 3 Yrotation Xrotation Zrotation
     JOINT Neck
     {
      OFFSET 0.000000 14.453000 0.000000
      CHANNELS 3 Yrotation Xrotation Zrotation
      JOINT Head
      {
       OFFSET 0.000000 8.936500 -0.011300
       CHANNELS 3 Yrotation Xrotation Zrotation
       End Site
       {
        OFFSET 0.000000 17.073600 -0.006000
       }
      }
     }
     JOINT RightCollar
     {
      OFFSET -2.921100 9.558500 0.000000
      CHANNELS 3 Yrotation Xrotation Zrotation
      JOINT RightShoulder
      {
       OFFSET -13.519700 0.000000 0.000000
       CHANNELS 3 Yrotation Xrotation Zrotation
       JOINT RightElbow
       {
        OFFSET 0.000000 -29.696600 0.000000
        CHANNELS 3 Yrotation Xrotation Zrotation
        JOINT RightWrist
        {
         OFFSET 0.000000 -24.004700 0.000000
         CHANNELS 3 Yrotation Xrotation Zrotation
         End Site
         {
          OFFSET 0.000000 -17.728500 0.000000
         }
        }
       }
      }
     }
     JOINT LeftCollar
     {
      OFFSET 2.921100 9.558500 0.000000
      CHANNELS 3 Yrotation Xrotation Zrotation
      JOINT LeftShoulder
      {
       OFFSET 13.519700 0.000000 0.000000
       CHANNELS 3 Yrotation Xrotation Zrotation
       JOINT LeftElbow
       {
        OFFSET 0.000000 -29.696600 0.000000
        CHANNELS 3 Yrotation Xrotation Zrotation
        JOINT LeftWrist
        {
         OFFSET 0.000000 -24.004700 0.000000
         CHANNELS 3 Yrotation Xrotation Zrotation
         End Site
         {
          OFFSET 0.000000 -17.728500 0.000000
         }
        }
       }
      }
     }
    }
   }
  }
 }
 JOINT RightHip
 {
  OFFSET -7.771700 -0.012900 -0.001300
  CHANNELS 3 Yrotation Xrotation Zrotation
  JOINT RightKnee
  {
   OFFSET 0.000000 -40.869800 0.001200
   CHANNELS 3 Yrotation Xrotation Zrotation
   JOINT RightAnkle
   {
    OFFSET 0.000000 -39.717900 0.002100
    CHANNELS 3 Yrotation Xrotation Zrotation
    JOINT RightToe
    {
     OFFSET 0.000000 -4.965400 11.033500
     CHANNELS 3 Yrotation Xrotation Zrotation
     End Site
     {
      OFFSET 0.000000 -1.423100 5.872300
     }
    }
   }
  }
 }
 JOINT LeftHip
 {
  OFFSET 7.771700 -0.012900 -0.001300
  CHANNELS 3 Yrotation Xrotation Zrotation
  JOINT LeftKnee
  {
   OFFSET 0.000000 -40.869800 0.001200
   CHANNELS 3 Yrotation Xrotation Zrotation
   JOINT LeftAnkle
   {
    OFFSET 0.000000 -39.717900 0.002100
    CHANNELS 3 Yrotation Xrotation Zrotation
    JOINT LeftToe
    {
     OFFSET 0.000000 -4.965400 11.033500
     CHANNELS 3 Yrotation Xrotation Zrotation
     End Site
     {
      OFFSET 0.000000 -1.423100 5.872300
     }
    }
   }
  }
 }
}
MOTION
Frames: 8
Frame Time: 0.008333
0.000000 85.388000 0.000000 0.000000 -5.767877 0.000000 0.000000 11.653817 0.000000 0.000000 -5.885947 0.000000 0.000000 -0.000000 0.000000 0.000000 -0.000000 0.000000 0.000000 12.528835 0.000000 0.000000 0.711642 0.000000 0.000000 -0.000000 0.000000 0.000000 0.000000 -90.000000 0.000000 -2.309062 0.000000 0.000000 2.309062 0.000000 0.000000 -0.000000 0.000000 0.000000 -0.000000 90.000000 0.000000 -2.309062 0.000000 0.000000 2.309062 0.000000 0.000000 8.520406 0.000000 0.000000 1.905762 0.000000 -0.000000 -4.658285 0.000000 0.000000 -0.000000 0.000000 0.000000 8.520406 0.000000 0.000000 1.905762 0.000000 -0.000000 -4.658285 0.000000 0.000000 -0.000000 0.000000
-100.371435 49.453237 20.614157 174.974205 -30.943563 -4.069879 0.230052 18.304861 3.587715 -0.023673 2.087481 0.345490 -0.050038 3.471672 0.557718 0.147556 15.918025 2.674356 8.256667 20.287174 -0.912223 15.252332 2.407308 -4.068892 -3.369863 -3.005921 -4.452452 0.902755 -7.043136 -12.014396 -52.125776 -57.537411 98.467836 5.952983 2.597852 -3.456468 -0.300950 -5.178175 4.155811 19.263757 -13.802847 14.769810 87.111440 -35.524791 -127.276038 12.008382 -4.481033 -5.394479 -8.909695 -52.520504 -3.656108 -155.389018 83.063503 -141.435552 -30.121211 -4.864186 -6.199144 -0.049715 -13.234368 0.504621 -16.563201 -55.087381 21.530096 -77.501678 67.196692 -81.469576 30.701867 6.002409 13.430163 -0.146315 -0.757279 -0.056954
-100.377699 49.455296 20.616849 174.965921 -30.914120 -4.055010 0.252642 18.263993 3.604794 -0.030763 2.086504 0.336436 -0.046236 3.464105 0.560242 0.202764 15.849293 2.716067 8.628954 20.391397 -0.956866 15.970384 2.615600 -4.237723 -3.442196 -3.194084 -4.546047 0.653557 -6.788951 -11.848873 -52.251957 -57.519576 98.393225 5.947674 2.601742 -3.081586 -0.526847 -5.311187 4.283858 19.499961 -12.983144 14.529860 86.810144 -35.820948 -126.605058 12.008674 -4.287375 -4.647548 -8.885246 -52.552417 -3.668462 -155.403003 83.074120 -141.451770 -30.131882 -4.862528 -6.193457 -0.023892 -13.224569 0.497202 -16.551098 -55.115474 21.513066 -77.483654 67.197352 -81.446908 30.690500 6.004764 13.426149 -0.146907 -0.755802 -0.058933
-100.383049 49.457699 20.620302 174.957675 -30.880543 -4.049730 0.268527 18.224866 3.624038 -0.029372 2.080649 0.331494 -0.027515 3.438062 0.573567 0.189471 15.849753 2.711319 9.032615 20.428231 -0.994240 16.673720 2.798524 -4.411233 -3.477198 -3.409288 -4.605721 0.407209 -6.569052 -11.706417 -52.412830 -57.465795 98.334134 5.918067 2.577600 -2.721415 -0.678899 -5.487402 4.408524 19.712315 -12.242603 14.316633 86.453682 -36.074769 -125.874108 12.073470 -4.190418 -3.639819 -8.881592 -52.587713 -3.659788 -155.425299 83.087733 -141.480213 -30.143424 -4.849643 -6.186130 -0.054079 -13.223529 0.498598 -16.557173 -55.146593 21.522304 -77.474764 67.187734 -81.435174 30.674207 6.011920 13.417076 -0.130549 -0.755553 -0.053960
-100.389407 49.459903 20.624456 174.937772 -30.842854 -4.035344 0.284086 18.185326 3.632607 -0.019254 2.065309 0.336198 -0.023499 3.420211 0.575114 0.187507 15.847400 2.710898 9.408264 20.452963 -1.039867 17.355167 2.963232 -4.585963 -3.515369 -3.607560 -4.659437 0.155304 -6.377467 -11.587325 -52.616198 -57.375186 98.296388 5.868388 2.516188 -2.378583 -0.799705 -5.659509 4.516470 19.884868 -11.560144 14.118660 86.095282 -36.297692 -125.106604 12.177259 -4.195214 -2.463398 -8.837673 -52.625608 -3.670732 -155.372275 83.095146 -141.414506 -30.153549 -4.860787 -6.184119 -0.060849 -13.201885 0.501707 -16.551686 -55.177994 21.522263 -77.449769 67.181763 -81.411134 30.672863 6.005072 13.421651 -0.133105 -0.746962 -0.057839
-100.398912 49.457398 20.635908 174.910748 -30.753468 -4.003613 0.293067 18.092233 3.621719 -0.013364 2.057925 0.339359 -0.020669 3.400887 0.575633 0.201890 15.806254 2.722733 9.743223 20.502198 -1.094162 18.006883 3.120685 -4.753226 -3.562401 -3.758791 -4.717857 -0.118793 -6.209786 -11.484514 -52.851955 -57.256676 98.274792 5.794866 2.416611 -2.048514 -0.898591 -5.796231 4.610820 20.009140 -10.918514 13.923966 85.764434 -36.481516 -124.323751 12.299415 -4.281596 -1.200983 -8.766085 -52.712693 -3.690605 -155.190986 83.100941 -141.212071 -30.168053 -4.923752 -6.194085 -0.051464 -13.124761 0.516392 -16.558885 -55.255623 21.511136 -77.385165 67.170334 -81.339241 30.711548 5.990776 13.428297 -0.158843 -0.721327 -0.071878
-100.402694 49.457464 20.643613 174.905660 -30.694629 -4.015038 0.298188 18.026148 3.641989 -0.018075 2.049358 0.341949 -0.016743 3.335385 0.574593 0.201302 15.806462 2.726560 10.071212 20.555763 -1.146853 18.614216 3.275427 -4.903934 -3.594578 -3.884639 -4.768440 -0.426681 -6.062883 -11.386881 -53.106594 -57.127284 98.267623 5.698076 2.283418 -1.726250 -0.946692 -5.920226 4.704628 20.080564 -10.314335 13.730462 85.466067 -36.607588 -123.540723 12.442143 -4.415964 0.088361 -8.748182 -52.765106 -3.665449 -155.034554 83.111979 -141.044790 -30.175325 -4.926849 -6.198630 -0.046235 -13.098638 0.527589 -16.606764 -55.304411 21.555364 -77.362648 67.143607 -81.307491 30.721798 5.996783 13.415767 -0.160249 -0.714507 -0.066528
-100.406737 49.457499 20.650104 174.904695 -30.644081 -4.024479 0.306206 17.965507 3.657327 -0.025553 2.037074 0.343231 -0.013030 3.323395 0.568936 0.199961 15.750800 2.727841 10.373601 20.614388 -1.190644 19.166265 3.423938 -5.037115 -3.632646 -3.987448 -4.808739 -0.777017 -5.930810 -11.285899 -53.381701 -57.002478 98.280838 5.582948 2.124206 -1.409484 -0.968390 -6.027281 4.797173 20.104133 -9.760098 13.541173 85.194876 -36.671956 -122.758931 12.622976 -4.583987 1.367120 -8.725936 -52.809327 -3.653234 -154.847824 83.114981 -140.845691 -30.167726 -4.933500 -6.205747 -0.014786 -13.072711 0.534274 -16.648855 -55.345046 21.586782 -77.339571 67.127815 -81.275515 30.722150 5.995330 13.401698 -0.162985 -0.703444 -0.059998
